<?xml version="1.0" standalone="no"?>
<!DOCTYPE svg PUBLIC "-//W3C//DTD SVG 20010904//EN"
 "http://www.w3.org/TR/2001/REC-SVG-20010904/DTD/svg10.dtd">
<svg version="1.0" xmlns="http://www.w3.org/2000/svg"
 width="2134.000000pt" height="2134.000000pt" viewBox="0 0 2134.000000 2134.000000"
 preserveAspectRatio="xMidYMid meet">
<metadata>
Created by potrace 1.11, written by Peter Selinger 2001-2013
</metadata>
<g transform="translate(0.000000,2134.000000) scale(0.100000,-0.100000)"
fill="#000000" stroke="none">
<path d="M5800 21333 c-995 -58 -1911 -562 -2504 -1377 -265 -363 -470 -828
-560 -1268 -54 -266 -61 -341 -61 -688 0 -347 7 -422 61 -688 199 -975 854
-1830 1751 -2285 162 -82 335 -155 456 -193 l57 -18 0 -4147 0 -4147 -82 -28
c-329 -108 -704 -316 -1006 -557 -155 -123 -387 -354 -506 -502 -414 -517
-666 -1137 -727 -1787 -17 -188 -7 -626 19 -793 98 -629 330 -1156 723 -1643
81 -99 362 -380 461 -461 494 -398 1029 -631 1673 -728 186 -28 738 -26 925 4
742 117 1363 428 1876 938 501 498 822 1117 939 1809 64 381 59 824 -16 1206
-178 918 -746 1728 -1548 2210 -139 83 -347 188 -458 231 l-61 23 51 76 c28
41 99 123 157 181 370 371 1002 584 2150 723 242 30 544 61 1140 116 1013 95
1561 171 2116 295 1479 331 2469 996 3042 2042 327 595 495 1272 537 2154 l7
136 101 37 c134 49 400 178 537 261 914 551 1512 1500 1611 2557 17 188 7 626
-19 793 -114 731 -428 1359 -937 1871 -498 501 -1117 822 -1809 939 -381 64
-824 59 -1206 -16 -1324 -257 -2372 -1305 -2629 -2629 -54 -277 -74 -635 -52
-915 65 -801 403 -1530 975 -2100 374 -372 809 -639 1310 -805 l99 -33 -7
-124 c-16 -298 -71 -600 -158 -858 -50 -151 -168 -378 -256 -495 -417 -552
-1153 -844 -2552 -1014 -243 -30 -565 -63 -1090 -111 -1160 -107 -1730 -191
-2315 -340 -332 -84 -680 -203 -922 -316 l-83 -38 0 2995 c0 2135 3 2994 11
2994 30 0 304 112 454 185 1326 648 2062 2082 1820 3550 -140 845 -605 1607
-1295 2122 -310 232 -699 425 -1073 533 -350 101 -754 145 -1127 123z m408
-2706 c105 -36 176 -81 263 -167 126 -125 189 -278 189 -460 0 -182 -63 -335
-189 -460 -130 -128 -260 -187 -432 -197 -192 -11 -354 52 -495 191 -138 138
-198 279 -198 466 0 187 60 328 198 465 92 91 182 144 298 175 103 28 263 22
366 -13z m9286 -2653 c195 -50 357 -185 441 -369 87 -190 84 -372 -11 -565
-135 -274 -447 -420 -742 -349 -73 18 -180 71 -249 123 -112 85 -201 221 -237
362 -20 78 -20 229 -1 313 52 220 262 432 482 485 80 20 241 20 317 0z m-9335
-11999 c223 -53 433 -263 486 -486 19 -84 19 -235 -1 -313 -36 -141 -125 -277
-237 -362 -69 -52 -176 -105 -249 -123 -295 -71 -607 75 -742 349 -72 148 -90
271 -60 418 51 247 233 443 477 513 79 22 238 24 326 4z"/>
</g>
</svg>
